<?xml version="1.0" encoding="utf-8"?>
<!-- Generator: Adobe Illustrator 24.0.1, SVG Export Plug-In . SVG Version: 6.00 Build 0)  -->
<svg version="1.1" id="Layer_1" xmlns="http://www.w3.org/2000/svg" xmlns:xlink="http://www.w3.org/1999/xlink" x="0px" y="0px"
	 viewBox="0 0 170 80" style="enable-background:new 0 0 170 80;" xml:space="preserve">
<style type="text/css">
	.st0{enable-background:new    ;}
	.st1{fill:#B4DDF1;}
	.st2{fill:#EE2237;}
	.st3{fill:#ED2224;}
</style>
<g class="st0">
	<path class="st1" d="M5.7,5.8h9.8c1.3,0,2.5,0.1,3.7,0.4c1.2,0.3,2.2,0.7,3,1.3c0.9,0.6,1.6,1.5,2.1,2.5c0.5,1.1,0.8,2.4,0.8,3.9
		c0,1.9-0.5,3.5-1.4,4.9s-2.3,2.2-4.1,2.5L26,32.8h-6.7L14,22h-2.7v10.8H5.7V5.8z M11.3,16.9h3.3c0.5,0,1,0,1.6-0.1
		c0.6,0,1.1-0.2,1.5-0.3c0.5-0.2,0.8-0.5,1.1-0.9c0.3-0.4,0.4-1,0.4-1.7c0-0.7-0.1-1.2-0.4-1.6c-0.3-0.4-0.6-0.7-1-0.9
		c-0.4-0.2-0.9-0.4-1.4-0.4c-0.5-0.1-1-0.1-1.5-0.1h-3.6V16.9z"/>
	<path class="st1" d="M44.5,29.6c-0.9,1.2-1.9,2.1-3.2,2.7c-1.3,0.6-2.7,1-4.1,1c-1.3,0-2.6-0.2-3.8-0.7c-1.2-0.5-2.2-1.1-3.1-2
		c-0.9-0.9-1.6-1.9-2-3.1c-0.5-1.2-0.7-2.5-0.7-4s0.2-2.8,0.7-4c0.5-1.2,1.2-2.2,2-3.1c0.9-0.9,1.9-1.5,3.1-2
		c1.2-0.5,2.4-0.7,3.8-0.7c1.2,0,2.4,0.2,3.4,0.7c1,0.5,1.9,1.1,2.6,2c0.7,0.9,1.2,1.9,1.6,3.1c0.4,1.2,0.6,2.5,0.6,4v1.8H33
		c0.2,1.1,0.7,2,1.4,2.6s1.6,1,2.6,1c0.9,0,1.6-0.2,2.2-0.6s1.1-1,1.6-1.6L44.5,29.6z M40,21.4c0-1-0.3-1.8-0.9-2.5
		c-0.6-0.7-1.4-1-2.4-1c-0.6,0-1.1,0.1-1.6,0.3c-0.5,0.2-0.8,0.5-1.2,0.8s-0.6,0.7-0.7,1.1S33,20.9,33,21.4H40z"/>
	<path class="st1" d="M58.4,19.7c-0.8-1-1.8-1.6-3.1-1.6c-0.5,0-0.9,0.1-1.3,0.3c-0.4,0.2-0.6,0.6-0.6,1.2c0,0.5,0.2,0.8,0.7,1
		c0.4,0.2,1,0.4,1.7,0.6c0.7,0.2,1.4,0.3,2.2,0.5c0.8,0.2,1.5,0.5,2.2,0.9c0.7,0.4,1.2,1,1.7,1.7c0.4,0.7,0.7,1.6,0.7,2.8
		c0,1.2-0.2,2.2-0.7,3c-0.5,0.8-1.1,1.4-1.9,1.9c-0.8,0.5-1.6,0.8-2.6,1c-1,0.2-1.9,0.3-2.8,0.3c-1.2,0-2.4-0.2-3.7-0.6
		c-1.2-0.4-2.3-1-3.1-2l3.2-3.9c0.5,0.7,1.1,1.2,1.7,1.5s1.3,0.5,2.1,0.5c0.6,0,1.2-0.1,1.7-0.3c0.5-0.2,0.7-0.5,0.7-1
		c0-0.5-0.2-0.8-0.7-1.1c-0.4-0.2-1-0.4-1.7-0.6c-0.7-0.2-1.4-0.3-2.2-0.5c-0.8-0.2-1.5-0.5-2.2-0.9s-1.2-0.9-1.7-1.6
		C48.2,22.1,48,21.2,48,20c0-1.1,0.2-2,0.6-2.8c0.4-0.8,1-1.4,1.6-1.9c0.7-0.5,1.5-0.9,2.3-1.1c0.9-0.2,1.8-0.4,2.7-0.4
		c1.1,0,2.3,0.2,3.5,0.5c1.2,0.4,2.2,1,3,1.9L58.4,19.7z"/>
	<path class="st1" d="M76.9,18.8h-4.7V25c0,0.5,0,1,0.1,1.4c0,0.4,0.2,0.8,0.3,1.1c0.2,0.3,0.4,0.5,0.8,0.7c0.3,0.2,0.8,0.2,1.4,0.2
		c0.3,0,0.7,0,1.1-0.1c0.5-0.1,0.8-0.2,1.1-0.4v4.8c-0.6,0.2-1.2,0.4-1.9,0.5s-1.3,0.1-1.9,0.1c-0.9,0-1.7-0.1-2.5-0.3
		c-0.8-0.2-1.4-0.5-2-1s-1-1-1.3-1.7s-0.5-1.6-0.5-2.6v-8.8h-3.4v-4.6h3.4V8.7h5.3v5.5h4.7V18.8z"/>
</g>
<g class="st0">
	<path class="st2" d="M80.3,5.8h9.4c1.3,0,2.5,0.1,3.7,0.4c1.2,0.3,2.2,0.7,3,1.3S98,8.9,98.5,10c0.5,1.1,0.8,2.4,0.8,4
		c0,1.6-0.2,2.9-0.7,4s-1.1,1.9-2,2.6c-0.8,0.6-1.8,1.1-3,1.4s-2.4,0.4-3.7,0.4h-4.1v10.5h-5.6V5.8z M85.9,17.2h3.7
		c0.5,0,1-0.1,1.4-0.2c0.5-0.1,0.9-0.3,1.2-0.5c0.4-0.2,0.7-0.6,0.9-1s0.3-0.9,0.3-1.6c0-0.7-0.1-1.2-0.4-1.7
		c-0.3-0.4-0.7-0.7-1.1-1c-0.5-0.2-1-0.4-1.6-0.4s-1.1-0.1-1.6-0.1h-2.9V17.2z"/>
	<path class="st2" d="M101.4,23.5c0-1.5,0.2-2.8,0.7-4c0.5-1.2,1.2-2.2,2-3.1c0.9-0.9,1.9-1.5,3.1-2c1.2-0.5,2.4-0.7,3.8-0.7
		c1.3,0,2.6,0.2,3.8,0.7c1.2,0.5,2.2,1.1,3.1,2c0.9,0.9,1.6,1.9,2,3.1c0.5,1.2,0.7,2.5,0.7,4s-0.2,2.8-0.7,4c-0.5,1.2-1.2,2.2-2,3.1
		c-0.9,0.9-1.9,1.5-3.1,2c-1.2,0.5-2.4,0.7-3.8,0.7c-1.3,0-2.6-0.2-3.8-0.7c-1.2-0.5-2.2-1.1-3.1-2c-0.9-0.9-1.6-1.9-2-3.1
		C101.7,26.3,101.4,25,101.4,23.5z M106.8,23.5c0,1.4,0.4,2.5,1.1,3.4c0.7,0.9,1.8,1.3,3.2,1.3s2.4-0.4,3.2-1.3
		c0.7-0.9,1.1-2,1.1-3.4s-0.4-2.5-1.1-3.4c-0.7-0.9-1.8-1.3-3.2-1.3s-2.4,0.4-3.2,1.3C107.2,21,106.8,22.1,106.8,23.5z"/>
	<path class="st2" d="M123.5,8.4c0-0.9,0.3-1.7,0.9-2.3c0.6-0.6,1.3-1,2.2-1s1.6,0.3,2.2,1c0.6,0.6,0.9,1.4,0.9,2.3
		c0,0.9-0.3,1.7-0.9,2.3c-0.6,0.6-1.3,1-2.2,1s-1.6-0.3-2.2-1C123.8,10.1,123.5,9.3,123.5,8.4z M123.9,14.2h5.3v18.5h-5.3V14.2z"/>
	<path class="st2" d="M133.1,14.2h5.1v2.5h0.1c0.2-0.4,0.4-0.7,0.7-1.1c0.3-0.4,0.7-0.7,1.1-1s0.9-0.5,1.5-0.7
		c0.5-0.2,1.1-0.3,1.8-0.3c1.4,0,2.4,0.2,3.3,0.7c0.8,0.4,1.5,1.1,1.9,1.8c0.5,0.8,0.8,1.7,0.9,2.8s0.2,2.2,0.2,3.5v10.2h-5.3v-9.1
		c0-0.5,0-1.1-0.1-1.7c0-0.6-0.1-1.1-0.3-1.6c-0.2-0.5-0.5-0.9-0.8-1.2c-0.4-0.3-0.9-0.5-1.6-0.5c-0.7,0-1.2,0.1-1.7,0.4
		c-0.4,0.3-0.8,0.6-1,1.1c-0.2,0.4-0.4,0.9-0.4,1.5c-0.1,0.6-0.1,1.1-0.1,1.8v9.2h-5.3V14.2z"/>
	<path class="st2" d="M165.3,18.8h-4.7V25c0,0.5,0,1,0.1,1.4s0.2,0.8,0.3,1.1c0.2,0.3,0.4,0.5,0.8,0.7c0.3,0.2,0.8,0.2,1.4,0.2
		c0.3,0,0.7,0,1.1-0.1c0.5-0.1,0.8-0.2,1.1-0.4v4.8c-0.6,0.2-1.2,0.4-1.9,0.5s-1.3,0.1-1.9,0.1c-0.9,0-1.7-0.1-2.5-0.3
		c-0.8-0.2-1.4-0.5-2-1s-1-1-1.3-1.7c-0.3-0.7-0.5-1.6-0.5-2.6v-8.8h-3.4v-4.6h3.4V8.7h5.3v5.5h4.7V18.8z"/>
</g>
<polygon class="st3" points="47.6,34.3 49.7,42.8 57.6,40.5 51.8,46.8 57.6,53 49.7,50.8 47.6,59.3 45.4,50.8 37.6,53 43.3,46.8 
	37.6,40.5 45.4,42.8 "/>
<polygon class="st3" points="69.6,34.3 71.7,42.8 79.6,40.5 73.8,46.8 79.6,53 71.7,50.8 69.6,59.3 67.4,50.8 59.6,53 65.3,46.8 
	59.6,40.5 67.4,42.8 "/>
<polygon class="st3" points="91.6,34.3 93.7,42.8 101.6,40.5 95.8,46.8 101.6,53 93.7,50.8 91.6,59.3 89.4,50.8 81.6,53 87.3,46.8 
	81.6,40.5 89.4,42.8 "/>
<polygon class="st3" points="113.6,34.3 115.7,42.8 123.6,40.5 117.8,46.8 123.6,53 115.7,50.8 113.6,59.3 111.4,50.8 103.6,53 
	109.3,46.8 103.6,40.5 111.4,42.8 "/>
<g class="st0">
	<path d="M22.8,70.8c-0.8,0.5-1.6,0.8-2.5,1c-0.9,0.2-1.8,0.3-2.7,0.3c-1,0-1.9-0.2-2.7-0.5c-0.8-0.3-1.5-0.8-2.1-1.4
		c-0.6-0.6-1.1-1.4-1.4-2.2C11.1,67,10.9,66,10.9,65c0-1.1,0.2-2.1,0.5-2.9c0.3-0.9,0.8-1.6,1.4-2.2c0.6-0.6,1.3-1.1,2.1-1.4
		c0.8-0.3,1.7-0.5,2.7-0.5c1,0,1.9,0.1,2.7,0.4c0.8,0.3,1.6,0.7,2.2,1.3l-1.9,2.3c-0.4-0.4-0.8-0.7-1.3-1c-0.5-0.2-1.1-0.3-1.8-0.3
		c-0.6,0-1.1,0.1-1.6,0.3c-0.5,0.2-0.9,0.5-1.2,0.9s-0.6,0.8-0.8,1.4c-0.2,0.5-0.3,1.1-0.3,1.7c0,0.6,0.1,1.2,0.3,1.7
		c0.2,0.5,0.4,1,0.8,1.4s0.7,0.7,1.2,0.9c0.5,0.2,1,0.3,1.6,0.3c0.6,0,1.1-0.1,1.5-0.2s0.8-0.3,1-0.4v-2.2h-2.2v-2.7h4.8V70.8z"/>
	<path d="M24.5,67.1c0-0.7,0.1-1.4,0.4-2c0.2-0.6,0.6-1.1,1-1.5c0.4-0.4,0.9-0.8,1.5-1s1.2-0.3,1.8-0.3c0.7,0,1.3,0.1,1.8,0.3
		s1.1,0.6,1.5,1c0.4,0.4,0.8,0.9,1,1.5s0.4,1.3,0.4,2s-0.1,1.4-0.4,2s-0.6,1.1-1,1.5c-0.4,0.4-0.9,0.8-1.5,1s-1.2,0.3-1.8,0.3
		c-0.7,0-1.3-0.1-1.8-0.3s-1.1-0.6-1.5-1c-0.4-0.4-0.8-0.9-1-1.5C24.7,68.5,24.5,67.8,24.5,67.1z M27.2,67.1c0,0.7,0.2,1.3,0.6,1.7
		s0.9,0.6,1.5,0.6c0.7,0,1.2-0.2,1.5-0.6s0.6-1,0.6-1.7s-0.2-1.3-0.6-1.7c-0.4-0.4-0.9-0.6-1.5-0.6c-0.7,0-1.2,0.2-1.5,0.6
		C27.3,65.8,27.2,66.4,27.2,67.1z"/>
	<path d="M45.6,73.2c-0.2,0.5-0.3,0.9-0.5,1.3c-0.2,0.4-0.4,0.7-0.6,1s-0.6,0.5-1,0.6c-0.4,0.1-0.9,0.2-1.5,0.2
		c-0.7,0-1.3-0.1-2-0.3l0.4-2.3c0.4,0.2,0.8,0.3,1.2,0.3c0.3,0,0.5,0,0.7-0.1c0.2-0.1,0.3-0.2,0.5-0.3c0.1-0.1,0.2-0.3,0.3-0.5
		c0.1-0.2,0.2-0.4,0.3-0.7l0.2-0.5l-3.7-9.3h2.8l2.2,6.1h0l1.9-6.1h2.7L45.6,73.2z"/>
	<path d="M50.1,67.1c0-0.7,0.1-1.4,0.4-2c0.2-0.6,0.6-1.1,1-1.5c0.4-0.4,0.9-0.8,1.5-1s1.2-0.3,1.8-0.3c0.7,0,1.3,0.1,1.8,0.3
		s1.1,0.6,1.5,1c0.4,0.4,0.8,0.9,1,1.5s0.4,1.3,0.4,2s-0.1,1.4-0.4,2s-0.6,1.1-1,1.5c-0.4,0.4-0.9,0.8-1.5,1s-1.2,0.3-1.8,0.3
		c-0.7,0-1.3-0.1-1.8-0.3s-1.1-0.6-1.5-1c-0.4-0.4-0.8-0.9-1-1.5C50.3,68.5,50.1,67.8,50.1,67.1z M52.8,67.1c0,0.7,0.2,1.3,0.6,1.7
		s0.9,0.6,1.5,0.6c0.7,0,1.2-0.2,1.5-0.6s0.6-1,0.6-1.7s-0.2-1.3-0.6-1.7c-0.4-0.4-0.9-0.6-1.5-0.6c-0.7,0-1.2,0.2-1.5,0.6
		C52.9,65.8,52.8,66.4,52.8,67.1z"/>
	<path d="M69.3,71.7h-2.5v-1.3h0c-0.1,0.2-0.2,0.4-0.4,0.5s-0.3,0.3-0.5,0.5c-0.2,0.1-0.4,0.3-0.7,0.3c-0.3,0.1-0.6,0.1-0.9,0.1
		c-0.7,0-1.2-0.1-1.6-0.3c-0.4-0.2-0.7-0.5-1-0.9c-0.2-0.4-0.4-0.9-0.5-1.4c-0.1-0.5-0.1-1.1-0.1-1.7v-5.1h2.6V67c0,0.3,0,0.5,0,0.8
		s0.1,0.5,0.2,0.8c0.1,0.2,0.2,0.4,0.4,0.6c0.2,0.2,0.4,0.2,0.8,0.2s0.6-0.1,0.8-0.2c0.2-0.1,0.4-0.3,0.5-0.5s0.2-0.5,0.2-0.8
		c0-0.3,0.1-0.6,0.1-0.9v-4.6h2.6V71.7z"/>
	<path d="M71.2,62.4h2.6v1.5h0c0.3-0.6,0.6-1,1-1.3c0.4-0.3,0.9-0.4,1.5-0.4c0.2,0,0.3,0,0.5,0c0.2,0,0.3,0,0.4,0.1v2.6
		c-0.2-0.1-0.4-0.1-0.6-0.1c-0.2,0-0.4,0-0.6,0c-0.5,0-0.9,0.1-1.2,0.2c-0.3,0.2-0.5,0.4-0.7,0.6s-0.3,0.6-0.3,1
		c0,0.4-0.1,0.8-0.1,1.3v3.9h-2.6V62.4z"/>
	<path d="M83.2,67.1c0-0.7,0.1-1.4,0.4-2c0.2-0.6,0.6-1.1,1-1.5c0.4-0.4,0.9-0.8,1.5-1s1.2-0.3,1.8-0.3c0.7,0,1.3,0.1,1.8,0.3
		c0.6,0.2,1.1,0.6,1.5,1s0.8,0.9,1,1.5s0.4,1.3,0.4,2s-0.1,1.4-0.4,2s-0.6,1.1-1,1.5s-0.9,0.8-1.5,1c-0.6,0.2-1.2,0.3-1.8,0.3
		c-0.7,0-1.3-0.1-1.8-0.3s-1.1-0.6-1.5-1c-0.4-0.4-0.8-0.9-1-1.5C83.3,68.5,83.2,67.8,83.2,67.1z M85.8,67.1c0,0.7,0.2,1.3,0.6,1.7
		c0.4,0.4,0.9,0.6,1.5,0.6s1.2-0.2,1.5-0.6c0.4-0.4,0.6-1,0.6-1.7s-0.2-1.3-0.6-1.7c-0.4-0.4-0.9-0.6-1.5-0.6s-1.2,0.2-1.5,0.6
		C86,65.8,85.8,66.4,85.8,67.1z"/>
	<path d="M93.1,62.4h2.8l1.7,5.8h0l1.5-5.8h2.9l1.6,5.8h0l1.6-5.8h2.7l-3,9.3h-2.6l-1.8-6.2h0l-1.6,6.2h-2.6L93.1,62.4z"/>
	<path d="M108.7,62.4h2.5v1.3h0c0.1-0.2,0.2-0.4,0.3-0.5c0.2-0.2,0.3-0.3,0.5-0.5s0.4-0.3,0.7-0.3s0.6-0.1,0.9-0.1
		c0.7,0,1.2,0.1,1.6,0.3c0.4,0.2,0.7,0.5,1,0.9c0.2,0.4,0.4,0.9,0.5,1.4c0.1,0.5,0.1,1.1,0.1,1.7v5.1h-2.6v-4.5c0-0.3,0-0.5,0-0.8
		s-0.1-0.5-0.2-0.8c-0.1-0.2-0.2-0.4-0.4-0.6c-0.2-0.2-0.4-0.2-0.8-0.2c-0.3,0-0.6,0.1-0.8,0.2s-0.4,0.3-0.5,0.5
		c-0.1,0.2-0.2,0.5-0.2,0.8c0,0.3-0.1,0.6-0.1,0.9v4.6h-2.6V62.4z"/>
	<path d="M122.9,62.4h2.8l1.7,5.8h0l1.5-5.8h2.9l1.6,5.8h0l1.6-5.8h2.7l-3,9.3h-2.6l-1.8-6.2h0l-1.6,6.2h-2.6L122.9,62.4z"/>
	<path d="M143.9,70.5L143.9,70.5c-0.3,0.5-0.7,0.9-1.2,1.1c-0.5,0.2-1,0.3-1.5,0.3c-0.4,0-0.8-0.1-1.1-0.2c-0.4-0.1-0.7-0.3-1-0.5
		c-0.3-0.2-0.5-0.5-0.7-0.9c-0.2-0.4-0.2-0.8-0.2-1.2c0-0.5,0.1-1,0.3-1.4c0.2-0.4,0.4-0.7,0.7-0.9c0.3-0.2,0.7-0.4,1.1-0.6
		c0.4-0.1,0.8-0.2,1.2-0.3c0.4-0.1,0.9-0.1,1.3-0.1s0.8,0,1.2,0c0-0.5-0.2-0.9-0.5-1.2s-0.7-0.4-1.2-0.4c-0.4,0-0.8,0.1-1.2,0.3
		c-0.4,0.2-0.7,0.5-1,0.8l-1.4-1.6c0.5-0.5,1.1-0.9,1.7-1.1s1.3-0.4,2-0.4c0.8,0,1.4,0.1,1.9,0.3c0.5,0.2,0.9,0.5,1.2,0.9
		c0.3,0.4,0.5,0.9,0.6,1.5c0.1,0.6,0.2,1.3,0.2,2v4.7h-2.4V70.5z M143.2,67.6c-0.2,0-0.4,0-0.7,0s-0.6,0.1-0.9,0.2
		c-0.3,0.1-0.5,0.2-0.7,0.4c-0.2,0.2-0.3,0.4-0.3,0.7c0,0.3,0.1,0.6,0.4,0.8s0.5,0.2,0.8,0.2c0.3,0,0.5,0,0.7-0.1s0.5-0.2,0.6-0.3
		c0.2-0.1,0.3-0.3,0.4-0.5c0.1-0.2,0.2-0.5,0.2-0.8v-0.6H143.2z"/>
</g>
<g class="st0">
	<path d="M152.8,73.2c-0.2,0.5-0.3,0.9-0.5,1.3c-0.2,0.4-0.4,0.7-0.6,1c-0.3,0.3-0.6,0.5-1,0.6c-0.4,0.1-0.9,0.2-1.5,0.2
		c-0.7,0-1.3-0.1-2-0.3l0.3-2.3c0.4,0.2,0.8,0.3,1.2,0.3c0.3,0,0.5,0,0.7-0.1c0.2-0.1,0.3-0.2,0.5-0.3c0.1-0.1,0.2-0.3,0.3-0.5
		c0.1-0.2,0.2-0.4,0.3-0.7l0.2-0.5l-3.7-9.3h2.8l2.2,6.1h0l1.9-6.1h2.7L152.8,73.2z"/>
</g>
<g class="st0">
	<path d="M156.1,70.1c0-0.2,0-0.5,0.1-0.7c0.1-0.2,0.2-0.4,0.3-0.6c0.1-0.2,0.3-0.3,0.5-0.4c0.2-0.1,0.4-0.1,0.6-0.1s0.4,0,0.6,0.1
		s0.4,0.2,0.5,0.4c0.1,0.2,0.3,0.3,0.3,0.6c0.1,0.2,0.1,0.4,0.1,0.7s0,0.5-0.1,0.7c-0.1,0.2-0.2,0.4-0.3,0.6
		c-0.1,0.2-0.3,0.3-0.5,0.4c-0.2,0.1-0.4,0.1-0.6,0.1s-0.4,0-0.6-0.1c-0.2-0.1-0.4-0.2-0.5-0.4c-0.1-0.2-0.3-0.3-0.3-0.6
		C156.2,70.5,156.1,70.3,156.1,70.1z"/>
</g>
</svg>
