<?xml version="1.0" encoding="utf-8"?>
<!-- Generator: Adobe Illustrator 24.0.1, SVG Export Plug-In . SVG Version: 6.00 Build 0)  -->
<svg version="1.1" id="Layer_1" xmlns="http://www.w3.org/2000/svg" xmlns:xlink="http://www.w3.org/1999/xlink" x="0px" y="0px"
	 viewBox="0 0 170 80" style="enable-background:new 0 0 170 80;" xml:space="preserve">
<style type="text/css">
	.st0{fill:#B4DDF1;}
	.st1{font-family:'Avenir-Black';}
	.st2{font-size:38.1391px;}
	.st3{fill:#EE2237;}
	.st4{fill:#ED2224;}
	.st5{font-size:19.0696px;}
	.st6{letter-spacing:-1.1;}
</style>
<text transform="matrix(0.9346 0 0 1 3.1666 32.7672)" class="st0 st1 st2">Rest</text>
<text transform="matrix(0.9346 0 0 1 77.7342 32.7671)" class="st3 st1 st2">Point</text>
<polygon class="st4" points="47.6,34.3 49.7,42.8 57.6,40.5 51.8,46.8 57.6,53 49.7,50.8 47.6,59.3 45.4,50.8 37.6,53 43.3,46.8 
	37.6,40.5 45.4,42.8 "/>
<polygon class="st4" points="69.6,34.3 71.7,42.8 79.6,40.5 73.8,46.8 79.6,53 71.7,50.8 69.6,59.3 67.4,50.8 59.6,53 65.3,46.8 
	59.6,40.5 67.4,42.8 "/>
<polygon class="st4" points="91.6,34.3 93.7,42.8 101.6,40.5 95.8,46.8 101.6,53 93.7,50.8 91.6,59.3 89.4,50.8 81.6,53 87.3,46.8 
	81.6,40.5 89.4,42.8 "/>
<polygon class="st4" points="113.6,34.3 115.7,42.8 123.6,40.5 117.8,46.8 123.6,53 115.7,50.8 113.6,59.3 111.4,50.8 103.6,53 
	109.3,46.8 103.6,40.5 111.4,42.8 "/>
<text transform="matrix(0.9179 0 0 1 10.308 71.7029)"><tspan x="0" y="0" class="st1 st5">Go your own wa</tspan><tspan x="148.9" y="0" class="st1 st5 st6">y</tspan><tspan x="157.8" y="0" class="st1 st5">.</tspan></text>
</svg>
